<svg id="svg" version="1.1" xmlns="http://www.w3.org/2000/svg" xmlns:xlink="http://www.w3.org/1999/xlink" width="400" height="400" viewBox="0, 0, 400,400"><g id="svgg"><path id="path0" d="M106.250 186.654 L 106.250 273.828 124.023 273.828 L 141.797 273.828 141.797 291.797 L 141.797 309.766 168.848 309.713 C 253.638 309.548,257.539 309.348,267.799 304.636 C 268.673 304.235,269.511 303.906,269.661 303.906 C 269.933 303.906,276.785 300.117,277.539 299.550 C 286.733 292.636,295.539 281.505,298.042 273.633 C 298.316 272.773,298.675 271.895,298.840 271.680 C 299.317 271.059,301.132 263.743,301.554 260.742 C 302.756 252.179,301.397 239.648,298.624 233.730 C 298.306 233.053,298.047 232.378,298.047 232.231 C 298.047 231.899,295.838 226.976,295.328 226.172 C 295.124 225.850,294.397 224.619,293.712 223.438 C 290.791 218.398,284.767 211.761,279.535 207.817 C 275.825 205.022,275.547 204.393,277.441 203.078 C 283.841 198.636,291.052 190.823,294.523 184.570 C 296.450 181.099,298.045 177.716,298.049 177.089 C 298.051 176.907,298.316 176.250,298.640 175.630 C 302.937 167.390,302.942 147.002,298.649 136.914 C 297.103 133.280,295.456 129.761,294.900 128.906 C 294.551 128.369,293.473 126.699,292.503 125.195 C 289.146 119.988,282.502 113.358,276.347 109.075 C 272.530 106.419,264.246 102.791,259.518 101.706 C 252.173 100.021,253.715 100.058,178.418 99.763 L 106.250 99.480 106.250 186.654 M255.273 117.321 C 255.703 117.501,256.406 117.797,256.836 117.977 C 257.266 118.157,258.293 118.512,259.120 118.766 C 269.525 121.955,279.341 132.116,283.636 144.141 L 284.961 147.852 284.961 156.445 L 284.961 165.039 283.633 168.694 C 282.243 172.523,279.774 177.652,278.905 178.516 C 278.797 178.623,278.205 179.454,277.588 180.363 C 276.012 182.686,270.425 187.956,268.134 189.281 C 267.076 189.892,266.123 190.503,266.016 190.639 C 265.670 191.076,260.933 193.359,260.372 193.359 C 260.074 193.359,259.772 193.491,259.701 193.652 C 259.629 193.813,258.340 194.385,256.836 194.922 L 254.102 195.898 216.016 196.094 L 177.930 196.289 177.824 204.532 L 177.719 212.775 180.715 213.028 C 182.363 213.167,199.461 213.282,218.711 213.283 L 253.711 213.285 256.992 214.460 C 265.917 217.656,273.525 223.025,277.566 228.980 C 278.194 229.906,278.820 230.752,278.955 230.859 C 279.608 231.377,282.457 237.320,283.637 240.625 L 284.961 244.336 284.961 252.930 L 284.961 261.523 283.609 265.234 C 280.624 273.429,275.829 280.134,269.778 284.574 C 268.461 285.540,267.176 286.501,266.922 286.710 C 266.511 287.048,261.580 289.452,259.570 290.294 C 259.141 290.474,257.432 291.058,255.773 291.592 L 252.757 292.563 206.164 292.586 L 159.570 292.610 159.466 283.219 L 159.361 273.828 202.337 273.828 L 245.313 273.828 245.313 265.234 L 245.313 256.641 202.344 256.641 L 159.375 256.641 159.375 195.898 L 159.375 135.156 150.586 135.156 L 141.797 135.156 141.797 195.898 L 141.797 256.641 132.617 256.641 L 123.438 256.641 123.438 186.784 C 123.438 148.363,123.511 116.854,123.600 116.764 C 123.918 116.446,254.506 116.998,255.273 117.321 " stroke="none" fill="#04ac94" fill-rule="evenodd"></path><path id="path1" d="M187.109 0.232 C 186.357 0.316,183.457 0.573,180.664 0.804 C 95.163 7.855,21.174 74.259,3.929 159.421 C -21.341 284.214,73.024 400.000,200.000 400.000 C 321.300 400.000,414.068 294.067,398.407 173.438 C 387.094 86.302,318.951 16.361,231.686 2.317 C 220.888 0.579,194.891 -0.637,187.109 0.232 M220.313 99.221 C 238.776 99.424,252.887 99.740,254.492 99.985 C 257.558 100.454,263.614 102.086,265.489 102.949 C 266.166 103.261,266.833 103.516,266.972 103.516 C 268.540 103.516,277.244 108.759,281.769 112.429 C 310.599 135.811,309.346 179.854,279.204 202.577 L 276.573 204.561 277.447 205.328 C 277.927 205.750,279.336 206.858,280.577 207.791 C 311.826 231.270,309.233 279.954,275.586 301.480 C 271.374 304.175,262.923 307.423,256.445 308.838 L 251.758 309.862 196.582 310.051 L 141.406 310.240 141.406 292.429 L 141.406 274.617 123.730 274.516 L 106.055 274.414 105.956 186.621 L 105.858 98.828 147.362 98.851 C 170.190 98.863,203.018 99.030,220.313 99.221 M123.828 186.719 L 123.828 256.250 132.616 256.250 L 141.404 256.250 141.503 195.605 L 141.602 134.961 150.586 134.961 L 159.570 134.961 159.669 195.605 L 159.768 256.250 202.743 256.250 L 245.718 256.250 245.613 265.332 L 245.508 274.414 202.637 274.513 L 159.766 274.613 159.766 283.423 L 159.766 292.233 206.348 292.110 L 252.930 291.986 255.664 291.075 C 274.336 284.854,284.512 271.398,284.511 252.930 C 284.509 234.499,274.618 221.217,256.153 214.850 L 252.736 213.672 215.040 213.672 L 177.344 213.672 177.344 204.749 L 177.344 195.826 215.175 195.602 L 253.006 195.379 256.679 194.150 C 274.506 188.182,284.512 174.627,284.511 156.445 C 284.510 145.927,282.732 140.495,276.687 132.532 C 273.530 128.375,264.904 121.094,263.135 121.094 C 263.013 121.094,261.986 120.673,260.851 120.158 C 259.717 119.643,257.330 118.765,255.546 118.205 L 252.303 117.188 188.066 117.188 L 123.828 117.188 123.828 186.719 " stroke="none" fill="#e3f3f3" fill-rule="evenodd"></path><path id="path2" d="M210.472 99.511 C 213.116 99.578,217.335 99.578,219.847 99.510 C 222.359 99.442,220.195 99.387,215.039 99.387 C 209.883 99.387,207.827 99.443,210.472 99.511 M253.158 100.139 C 253.247 100.216,253.936 100.391,254.688 100.529 C 255.649 100.706,255.881 100.666,255.469 100.396 C 254.939 100.049,252.770 99.808,253.158 100.139 M282.422 113.403 C 282.422 113.471,282.993 114.042,283.691 114.673 L 284.961 115.820 283.814 114.551 C 282.744 113.367,282.422 113.102,282.422 113.403 M194.434 117.090 C 205.229 117.147,222.896 117.147,233.691 117.090 C 244.487 117.032,235.654 116.985,214.063 116.985 C 192.471 116.985,183.638 117.032,194.434 117.090 M123.631 186.914 L 123.633 256.445 132.520 256.457 L 141.407 256.468 132.618 256.352 L 123.830 256.235 123.730 186.809 L 123.630 117.383 123.631 186.914 M301.653 147.656 C 301.653 148.408,301.734 148.716,301.832 148.340 C 301.930 147.964,301.930 147.349,301.832 146.973 C 301.734 146.597,301.653 146.904,301.653 147.656 M284.922 156.445 C 284.922 159.668,284.983 160.934,285.056 159.259 C 285.130 157.585,285.129 154.948,285.055 153.400 C 284.981 151.852,284.921 153.223,284.922 156.445 M301.653 164.844 C 301.653 165.596,301.734 165.903,301.832 165.527 C 301.930 165.151,301.930 164.536,301.832 164.160 C 301.734 163.784,301.653 164.092,301.653 164.844 M177.434 204.602 C 177.365 211.274,177.458 213.348,177.832 213.488 C 178.655 213.795,254.253 213.887,253.771 213.580 C 253.523 213.422,236.317 213.291,215.535 213.287 L 177.749 213.281 177.636 204.590 L 177.523 195.898 177.434 204.602 M273.242 224.609 C 274.081 225.469,274.856 226.172,274.963 226.172 C 275.071 226.172,274.472 225.469,273.633 224.609 C 272.794 223.750,272.019 223.047,271.912 223.047 C 271.804 223.047,272.403 223.750,273.242 224.609 M284.922 252.930 C 284.922 256.152,284.983 257.419,285.056 255.744 C 285.130 254.069,285.129 251.432,285.055 249.884 C 284.981 248.337,284.921 249.707,284.922 252.930 M180.927 256.543 C 192.673 256.600,212.009 256.600,223.896 256.543 C 235.782 256.486,226.172 256.439,202.539 256.439 C 178.906 256.439,169.181 256.485,180.927 256.543 M301.653 261.328 C 301.653 262.080,301.734 262.388,301.832 262.012 C 301.930 261.636,301.930 261.021,301.832 260.645 C 301.734 260.269,301.653 260.576,301.653 261.328 M285.724 292.676 L 284.180 294.336 285.840 292.792 C 287.384 291.356,287.680 291.016,287.384 291.016 C 287.320 291.016,286.573 291.763,285.724 292.676 M161.426 292.475 C 162.446 292.555,164.116 292.555,165.137 292.475 C 166.157 292.394,165.322 292.328,163.281 292.328 C 161.240 292.328,160.405 292.394,161.426 292.475 M238.010 309.667 C 240.547 309.735,244.590 309.735,246.995 309.666 C 249.400 309.598,247.324 309.542,242.383 309.542 C 237.441 309.543,235.474 309.599,238.010 309.667 M160.284 310.059 C 170.559 310.116,187.258 310.116,197.393 310.058 C 207.528 310.001,199.121 309.953,178.711 309.953 C 158.301 309.953,150.008 310.001,160.284 310.059 " stroke="none" fill="#89c5bc" fill-rule="evenodd"></path><path id="path3" d="M105.859 186.719 L 105.859 274.219 123.926 274.125 L 141.992 274.032 124.121 273.926 L 106.250 273.820 106.250 186.650 L 106.250 99.480 178.027 99.664 C 217.505 99.766,238.643 99.732,225.000 99.589 C 211.357 99.446,178.970 99.304,153.027 99.274 L 105.859 99.219 105.859 186.719 M257.031 101.166 C 257.354 101.378,258.042 101.553,258.561 101.557 C 259.815 101.564,259.497 101.342,257.813 101.033 C 256.851 100.857,256.619 100.896,257.031 101.166 M279.297 111.053 C 279.297 111.153,280.124 111.911,281.134 112.740 C 282.145 113.568,282.845 114.041,282.691 113.792 C 282.363 113.260,279.297 110.787,279.297 111.053 M253.906 117.296 C 254.014 117.406,254.790 117.684,255.631 117.914 C 256.472 118.144,256.999 118.181,256.803 117.996 C 256.426 117.642,253.570 116.952,253.906 117.296 M287.874 119.314 C 288.832 120.293,289.687 121.094,289.775 121.094 C 290.107 121.094,287.277 118.035,286.719 117.790 C 286.396 117.649,286.916 118.335,287.874 119.314 M259.766 119.306 C 260.854 119.962,261.710 120.133,261.113 119.575 C 260.909 119.384,260.303 119.113,259.766 118.973 L 258.789 118.717 259.766 119.306 M262.891 120.488 C 262.891 120.595,263.418 120.956,264.063 121.289 C 264.707 121.622,265.234 121.807,265.234 121.700 C 265.234 121.592,264.707 121.232,264.063 120.898 C 263.418 120.565,262.891 120.380,262.891 120.488 M266.576 122.615 C 266.721 122.850,267.203 123.237,267.647 123.474 C 268.225 123.784,268.379 123.785,268.189 123.479 C 268.044 123.243,267.562 122.857,267.119 122.619 C 266.541 122.310,266.387 122.309,266.576 122.615 M294.322 128.027 C 294.663 128.726,295.025 129.297,295.127 129.297 C 295.516 129.297,295.266 128.675,294.499 127.734 L 293.703 126.758 294.322 128.027 M274.609 129.419 C 274.609 129.486,275.181 130.058,275.879 130.689 L 277.148 131.836 276.001 130.566 C 274.932 129.383,274.609 129.117,274.609 129.419 M297.656 134.458 C 297.656 134.879,298.843 137.500,299.034 137.500 C 299.141 137.500,298.958 136.850,298.626 136.055 C 298.040 134.654,297.656 134.021,297.656 134.458 M280.740 138.081 C 281.098 138.830,281.459 139.374,281.544 139.289 C 281.723 139.111,280.537 136.719,280.270 136.719 C 280.171 136.719,280.383 137.332,280.740 138.081 M300.055 141.406 C 300.055 141.729,300.206 142.344,300.391 142.773 C 300.602 143.266,300.726 143.338,300.726 142.969 C 300.726 142.646,300.575 142.031,300.391 141.602 C 300.179 141.109,300.055 141.037,300.055 141.406 M284.039 146.094 C 284.039 146.416,284.190 147.031,284.375 147.461 C 284.587 147.953,284.711 148.026,284.711 147.656 C 284.711 147.334,284.560 146.719,284.375 146.289 C 284.163 145.797,284.039 145.724,284.039 146.094 M301.758 156.250 C 301.758 160.316,301.877 163.342,302.023 162.974 C 302.169 162.606,302.289 159.580,302.289 156.250 C 302.289 152.920,302.169 149.894,302.023 149.526 C 301.877 149.158,301.758 152.184,301.758 156.250 M284.208 165.458 C 284.064 166.030,284.034 166.586,284.142 166.694 C 284.249 166.801,284.455 166.421,284.598 165.848 C 284.742 165.276,284.772 164.719,284.664 164.612 C 284.557 164.505,284.351 164.885,284.208 165.458 M300.244 170.361 C 299.918 171.990,300.234 172.305,300.586 170.703 C 300.734 170.028,300.774 169.394,300.675 169.294 C 300.575 169.195,300.381 169.675,300.244 170.361 M282.097 171.855 C 281.868 172.511,281.764 173.047,281.866 173.047 C 282.130 173.047,282.867 171.018,282.673 170.824 C 282.585 170.736,282.325 171.200,282.097 171.855 M298.416 176.074 C 297.623 178.244,297.603 178.328,297.970 177.930 C 298.399 177.466,299.260 175.000,298.993 175.000 C 298.892 175.000,298.632 175.483,298.416 176.074 M276.449 181.356 C 274.663 183.679,274.651 183.710,276.189 182.041 C 277.600 180.512,278.762 178.891,278.432 178.914 C 278.370 178.919,277.478 180.017,276.449 181.356 M271.484 186.408 C 270.088 187.721,269.648 188.257,270.508 187.598 C 271.999 186.455,274.553 183.964,274.194 184.003 C 274.100 184.013,272.881 185.095,271.484 186.408 M264.844 191.035 L 263.867 191.818 264.941 191.354 C 265.532 191.099,266.016 190.743,266.016 190.562 C 266.016 190.117,265.961 190.139,264.844 191.035 M261.719 192.578 C 260.967 192.990,260.492 193.334,260.664 193.343 C 261.078 193.365,263.281 192.219,263.281 191.982 C 263.281 191.726,263.258 191.735,261.719 192.578 M288.452 193.066 L 287.305 194.336 288.574 193.189 C 289.272 192.558,289.844 191.986,289.844 191.919 C 289.844 191.617,289.521 191.883,288.452 193.066 M284.570 197.183 C 283.496 198.203,281.826 199.712,280.859 200.536 C 279.893 201.361,279.642 201.675,280.303 201.235 C 281.572 200.389,287.052 195.352,286.719 195.338 C 286.611 195.333,285.645 196.164,284.570 197.183 M177.734 195.996 C 177.734 196.261,204.138 196.259,240.039 195.990 C 247.559 195.934,236.616 195.846,215.723 195.796 C 194.829 195.745,177.734 195.835,177.734 195.996 M277.930 206.515 C 278.145 206.713,279.199 207.540,280.273 208.353 L 282.227 209.830 280.664 208.397 C 279.805 207.608,278.750 206.781,278.320 206.559 C 277.891 206.336,277.715 206.317,277.930 206.515 M284.974 212.508 C 286.471 214.124,287.775 215.392,287.873 215.326 C 287.970 215.259,286.746 213.937,285.151 212.388 L 282.252 209.570 284.974 212.508 M178.613 213.170 C 179.204 213.260,180.171 213.260,180.762 213.170 C 181.353 213.081,180.869 213.008,179.688 213.008 C 178.506 213.008,178.022 213.081,178.613 213.170 M258.203 215.029 C 258.203 215.338,261.035 216.439,261.258 216.216 C 261.368 216.106,261.363 216.016,261.246 216.016 C 261.129 216.016,260.396 215.750,259.618 215.424 C 258.840 215.099,258.203 214.921,258.203 215.029 M291.014 219.434 C 291.526 220.132,292.005 220.703,292.079 220.703 C 292.376 220.703,291.408 219.238,290.767 218.718 C 290.345 218.375,290.439 218.648,291.014 219.434 M270.117 221.608 C 270.977 222.383,271.825 223.024,272.003 223.032 C 272.180 223.040,271.829 222.647,271.221 222.159 C 269.154 220.496,268.550 220.195,270.117 221.608 M294.322 224.512 C 294.663 225.210,295.025 225.781,295.127 225.781 C 295.516 225.781,295.266 225.159,294.499 224.219 L 293.703 223.242 294.322 224.512 M275.000 226.039 C 275.000 226.252,275.483 226.852,276.074 227.373 L 277.148 228.320 276.172 227.148 C 275.635 226.504,275.151 225.903,275.098 225.814 C 275.044 225.724,275.000 225.825,275.000 226.039 M296.556 228.784 C 297.246 230.405,297.748 230.847,297.238 229.385 C 296.996 228.691,296.638 228.025,296.443 227.904 C 296.248 227.783,296.298 228.179,296.556 228.784 M298.090 232.431 C 298.340 233.178,298.701 233.961,298.892 234.171 C 299.083 234.381,299.035 233.941,298.785 233.194 C 298.535 232.447,298.174 231.664,297.983 231.454 C 297.792 231.244,297.840 231.684,298.090 232.431 M280.740 234.565 C 281.098 235.315,281.459 235.858,281.544 235.774 C 281.723 235.595,280.537 233.203,280.270 233.203 C 280.171 233.203,280.383 233.816,280.740 234.565 M300.055 237.891 C 300.055 238.213,300.206 238.828,300.391 239.258 C 300.602 239.750,300.726 239.822,300.726 239.453 C 300.726 239.131,300.575 238.516,300.391 238.086 C 300.179 237.594,300.055 237.521,300.055 237.891 M284.051 242.578 C 284.071 243.593,284.686 245.260,284.699 244.336 C 284.706 243.906,284.560 243.203,284.375 242.773 C 284.169 242.295,284.044 242.219,284.051 242.578 M301.758 252.693 C 301.758 256.780,301.877 259.823,302.023 259.456 C 302.361 258.609,302.351 247.373,302.012 246.166 C 301.872 245.669,301.758 248.606,301.758 252.693 M245.402 265.135 L 245.313 273.825 202.246 273.926 L 159.180 274.027 202.258 274.123 C 236.876 274.200,245.375 274.121,245.528 273.721 C 245.633 273.447,245.668 269.448,245.605 264.834 L 245.491 256.445 245.402 265.135 M284.180 262.109 C 284.031 262.785,283.998 263.425,284.105 263.532 C 284.213 263.640,284.422 263.175,284.570 262.500 C 284.719 261.825,284.752 261.184,284.645 261.077 C 284.537 260.970,284.328 261.434,284.180 262.109 M300.244 266.846 C 300.107 267.532,300.067 268.166,300.155 268.254 C 300.244 268.343,300.438 267.863,300.586 267.188 C 300.734 266.512,300.774 265.878,300.675 265.779 C 300.575 265.679,300.381 266.159,300.244 266.846 M282.097 268.339 C 281.868 268.995,281.764 269.531,281.866 269.531 C 282.130 269.531,282.867 267.502,282.673 267.309 C 282.585 267.220,282.325 267.684,282.097 268.339 M280.123 272.270 C 279.641 273.127,279.329 273.828,279.429 273.828 C 279.693 273.828,281.308 271.021,281.140 270.854 C 281.062 270.776,280.604 271.413,280.123 272.270 M298.417 272.515 C 298.201 273.082,298.098 273.618,298.186 273.707 C 298.275 273.796,298.534 273.332,298.763 272.676 C 299.271 271.219,298.964 271.076,298.417 272.515 M273.438 280.974 C 272.041 282.319,270.195 284.001,269.336 284.712 C 267.927 285.878,267.908 285.916,269.141 285.098 C 270.488 284.205,276.552 278.544,276.172 278.534 C 276.064 278.532,274.834 279.630,273.438 280.974 M265.524 287.076 C 263.821 288.168,263.739 288.417,265.332 287.660 C 266.138 287.278,266.797 286.821,266.797 286.646 C 266.797 286.251,266.826 286.241,265.524 287.076 M285.540 292.480 L 281.445 296.680 285.645 292.585 C 289.545 288.782,290.021 288.281,289.739 288.281 C 289.682 288.281,287.792 290.171,285.540 292.480 M210.156 292.188 L 166.602 292.388 209.961 292.477 C 237.448 292.534,253.535 292.428,253.906 292.188 C 254.229 291.979,254.316 291.849,254.102 291.898 C 253.887 291.947,234.111 292.077,210.156 292.188 M272.168 302.567 C 270.708 303.359,270.797 303.689,272.266 302.930 C 272.910 302.596,273.438 302.240,273.438 302.138 C 273.438 301.887,273.396 301.901,272.168 302.567 M267.360 304.863 C 266.628 305.410,266.633 305.422,267.487 305.207 C 267.973 305.084,268.467 304.829,268.584 304.640 C 268.914 304.106,268.200 304.236,267.360 304.863 M263.086 306.459 C 262.109 306.930,262.077 306.984,262.891 306.785 C 263.997 306.514,265.242 305.880,264.648 305.889 C 264.434 305.892,263.730 306.149,263.086 306.459 M254.492 308.435 L 251.758 308.953 254.226 308.751 C 255.583 308.640,257.077 308.394,257.546 308.205 C 258.690 307.745,257.782 307.813,254.492 308.435 M210.059 309.668 C 214.409 309.730,221.528 309.730,225.879 309.668 C 230.229 309.605,226.670 309.553,217.969 309.553 C 209.268 309.553,205.708 309.605,210.059 309.668 " stroke="none" fill="#54b4a5" fill-rule="evenodd"></path><path id="path4" d="M129.004 99.121 C 141.841 99.178,162.847 99.178,175.684 99.121 C 188.521 99.064,178.018 99.017,152.344 99.017 C 126.670 99.017,116.167 99.064,129.004 99.121 M229.004 99.511 C 231.743 99.578,236.226 99.578,238.965 99.511 C 241.704 99.443,239.463 99.389,233.984 99.389 C 228.506 99.389,226.265 99.443,229.004 99.511 M255.469 100.385 C 255.791 100.596,256.479 100.772,256.999 100.775 C 258.252 100.783,257.935 100.561,256.250 100.252 C 255.288 100.075,255.057 100.115,255.469 100.385 M279.047 110.458 C 279.356 110.958,281.641 112.649,281.641 112.378 C 281.641 112.281,280.995 111.710,280.207 111.108 C 279.418 110.507,278.896 110.214,279.047 110.458 M282.813 113.389 C 282.813 113.448,284.175 114.810,285.840 116.416 L 288.867 119.336 285.947 116.309 C 283.235 113.497,282.813 113.103,282.813 113.389 M136.650 117.090 C 143.809 117.149,155.410 117.149,162.431 117.090 C 169.451 117.030,163.594 116.981,149.414 116.981 C 135.234 116.981,129.490 117.030,136.650 117.090 M260.360 119.837 C 260.983 120.370,262.959 121.130,262.721 120.745 C 262.600 120.549,261.934 120.192,261.240 119.950 C 260.546 119.708,260.151 119.657,260.360 119.837 M290.986 122.363 C 291.913 123.599,292.750 124.609,292.845 124.609 C 293.112 124.609,290.542 121.118,289.884 120.588 C 289.563 120.329,290.059 121.128,290.986 122.363 M273.421 128.613 C 274.379 129.634,275.214 130.469,275.277 130.469 C 275.570 130.469,275.260 130.118,273.535 128.499 L 271.680 126.758 273.421 128.613 M295.508 129.297 C 295.841 129.941,296.202 130.469,296.309 130.469 C 296.417 130.469,296.232 129.941,295.898 129.297 C 295.565 128.652,295.205 128.125,295.097 128.125 C 294.990 128.125,295.175 128.652,295.508 129.297 M296.903 131.836 C 296.903 132.051,297.154 132.666,297.461 133.203 C 297.768 133.740,298.019 134.004,298.019 133.789 C 298.019 133.574,297.768 132.959,297.461 132.422 C 297.154 131.885,296.903 131.621,296.903 131.836 M141.589 135.247 C 141.486 135.519,141.447 162.900,141.502 196.094 L 141.604 256.445 141.700 195.801 L 141.797 135.156 150.585 135.156 L 159.373 135.156 159.473 195.605 L 159.574 256.055 159.572 195.508 L 159.570 134.961 150.674 134.856 C 143.769 134.774,141.736 134.862,141.589 135.247 M299.041 137.207 C 299.187 137.690,299.467 138.258,299.664 138.468 C 299.860 138.678,299.823 138.282,299.582 137.589 C 299.087 136.170,298.630 135.847,299.041 137.207 M300.848 142.578 C 300.868 143.593,301.483 145.260,301.496 144.336 C 301.502 143.906,301.357 143.203,301.172 142.773 C 300.966 142.295,300.841 142.219,300.848 142.578 M302.475 156.250 C 302.475 157.861,302.544 158.521,302.628 157.715 C 302.713 156.909,302.713 155.591,302.628 154.785 C 302.544 153.979,302.475 154.639,302.475 156.250 M283.247 167.622 C 283.006 168.312,282.877 168.945,282.961 169.029 C 283.044 169.112,283.310 168.616,283.550 167.925 C 283.791 167.235,283.920 166.602,283.836 166.518 C 283.752 166.435,283.487 166.931,283.247 167.622 M301.004 168.973 C 300.861 169.546,300.819 170.089,300.911 170.181 C 301.003 170.274,301.196 169.881,301.339 169.308 C 301.483 168.736,301.525 168.192,301.433 168.100 C 301.341 168.008,301.148 168.401,301.004 168.973 M297.329 179.900 C 296.675 181.336,296.799 181.642,297.507 180.337 C 297.838 179.727,298.035 179.155,297.946 179.065 C 297.856 178.976,297.579 179.351,297.329 179.900 M273.228 184.473 L 271.289 186.523 273.340 184.585 C 275.245 182.784,275.570 182.422,275.278 182.422 C 275.216 182.422,274.294 183.345,273.228 184.473 M269.531 187.548 C 268.170 188.741,268.169 188.743,269.422 187.910 C 270.114 187.449,270.783 186.905,270.910 186.701 C 271.286 186.091,270.974 186.283,269.531 187.548 M263.574 191.239 C 262.114 192.031,262.203 192.361,263.672 191.602 C 264.316 191.268,264.844 190.912,264.844 190.810 C 264.844 190.559,264.802 190.573,263.574 191.239 M285.343 196.973 L 281.836 200.586 285.449 197.078 C 288.805 193.821,289.240 193.359,288.957 193.359 C 288.899 193.359,287.273 194.985,285.343 196.973 M254.916 194.824 C 254.755 194.985,249.848 195.218,244.011 195.342 L 233.398 195.567 243.945 195.537 C 251.509 195.516,254.713 195.373,255.273 195.031 C 255.703 194.769,255.864 194.550,255.632 194.543 C 255.399 194.537,255.077 194.663,254.916 194.824 M281.641 208.716 C 281.641 208.783,282.212 209.354,282.910 209.986 L 284.180 211.133 283.032 209.863 C 281.963 208.680,281.641 208.414,281.641 208.716 M271.094 222.778 C 271.094 222.846,271.665 223.417,272.363 224.048 L 273.633 225.195 272.486 223.926 C 271.416 222.742,271.094 222.477,271.094 222.778 M275.365 227.246 C 276.306 228.374,277.151 229.297,277.242 229.297 C 277.508 229.297,275.102 226.350,274.342 225.744 C 273.964 225.442,274.424 226.118,275.365 227.246 M295.898 226.563 C 296.232 227.207,296.592 227.734,296.700 227.734 C 296.807 227.734,296.622 227.207,296.289 226.563 C 295.956 225.918,295.595 225.391,295.488 225.391 C 295.380 225.391,295.565 225.918,295.898 226.563 M296.903 228.320 C 296.903 228.535,297.154 229.150,297.461 229.688 C 297.768 230.225,298.019 230.488,298.019 230.273 C 298.019 230.059,297.768 229.443,297.461 228.906 C 297.154 228.369,296.903 228.105,296.903 228.320 M300.836 239.453 C 300.836 239.775,300.987 240.391,301.172 240.820 C 301.383 241.313,301.508 241.385,301.508 241.016 C 301.508 240.693,301.357 240.078,301.172 239.648 C 300.960 239.156,300.836 239.084,300.836 239.453 M302.480 252.734 C 302.480 254.561,302.548 255.308,302.630 254.395 C 302.712 253.481,302.712 251.987,302.630 251.074 C 302.548 250.161,302.480 250.908,302.480 252.734 M283.247 264.106 C 283.006 264.796,282.877 265.429,282.961 265.513 C 283.044 265.597,283.310 265.100,283.550 264.410 C 283.791 263.719,283.920 263.086,283.836 263.003 C 283.752 262.919,283.487 263.416,283.247 264.106 M301.004 265.458 C 300.861 266.030,300.819 266.574,300.911 266.666 C 301.003 266.758,301.196 266.365,301.339 265.792 C 301.483 265.220,301.525 264.676,301.433 264.584 C 301.341 264.492,301.148 264.885,301.004 265.458 M123.727 274.510 L 141.398 274.617 141.506 292.289 L 141.613 309.961 141.607 292.188 L 141.602 274.414 123.828 274.408 L 106.055 274.402 123.727 274.510 M159.550 274.716 C 159.445 274.990,159.410 279.077,159.473 283.798 L 159.586 292.383 159.676 283.498 L 159.766 274.613 202.637 274.512 L 245.508 274.411 202.624 274.315 C 168.184 274.238,159.704 274.317,159.550 274.716 M294.290 282.129 C 292.945 284.410,292.857 284.605,293.542 283.789 C 294.336 282.844,295.019 281.641,294.763 281.641 C 294.661 281.641,294.448 281.860,294.290 282.129 M269.727 283.847 C 268.550 284.899,268.462 285.044,269.371 284.437 C 270.450 283.715,271.808 282.399,271.435 282.437 C 271.355 282.445,270.586 283.079,269.727 283.847 M291.589 286.230 C 290.994 287.036,289.787 288.486,288.906 289.453 L 287.305 291.210 288.934 289.697 C 290.440 288.297,293.241 284.766,292.844 284.766 C 292.749 284.766,292.184 285.425,291.589 286.230 M263.574 287.723 C 262.114 288.516,262.203 288.846,263.672 288.086 C 264.316 287.753,264.844 287.397,264.844 287.295 C 264.844 287.043,264.802 287.057,263.574 287.723 M248.741 292.083 C 249.660 292.166,251.066 292.165,251.866 292.081 C 252.666 291.997,251.914 291.929,250.195 291.931 C 248.477 291.932,247.822 292.001,248.741 292.083 M282.202 296.191 L 281.055 297.461 282.324 296.314 C 283.022 295.683,283.594 295.111,283.594 295.044 C 283.594 294.742,283.271 295.008,282.202 296.191 M261.133 307.422 C 260.640 307.633,260.568 307.758,260.938 307.758 C 261.260 307.758,261.875 307.607,262.305 307.422 C 262.797 307.210,262.869 307.086,262.500 307.086 C 262.178 307.086,261.563 307.237,261.133 307.422 M251.758 309.385 C 251.236 309.616,251.561 309.654,252.734 309.499 C 253.701 309.371,254.565 309.203,254.655 309.125 C 254.994 308.831,252.504 309.055,251.758 309.385 M221.020 310.058 C 224.094 310.124,229.016 310.124,231.957 310.057 C 234.898 309.991,232.383 309.937,226.367 309.937 C 220.352 309.938,217.945 309.992,221.020 310.058 " stroke="none" fill="#acd4cc" fill-rule="evenodd"></path></g></svg>